<?xml version="1.0" encoding="UTF-8"?><svg id="a" xmlns="http://www.w3.org/2000/svg" viewBox="0 0 595.28 841.89"><defs><style>.b{fill:#fff;stroke-width:4px;}.b,.c{stroke:#1d1d1b;stroke-miterlimit:10;}.c{fill:#00a19a;stroke-width:5px;}</style></defs><ellipse class="c" cx="300.7" cy="399.05" rx="107.02" ry="108.77"/><g transform="translate(0.000000,1280.000000) scale(0.100000,-0.100000)"><path class="b" d="M212.3,283.76c-.43,1.63-1.43,5.25-2.19,8.02s-2.05,7.48-2.86,10.45-2.47,8.99-3.66,13.37l-2.19,7.97v3.21l22.31,.03,22.31,.04v133.49h1.56c.97,0,3.51-.24,6.76-.63,5.58-.67,17.96-2.16,27.46-3.31,3.2-.38,7.16-.86,8.77-1.04,1.63-.2,3.16-.38,3.4-.42l.46-.08,.03-64,.04-64,20.81-.04,20.79-.03v-46.02h-122.97l-.81,2.99Z"/></g><path class="b" d="M394.3,434.72c8.78-6.59,16.42-17.18,16.42-34.13v-.43c0-10.77-3.61-20.12-10.74-27.8-.03-.04-.07-.07-.1-.11-9.65-9.8-24.09-14.98-41.75-14.98h-49.34c-2.86,0-5.18,2.32-5.18,5.18v151.71c0,2.86,2.32,5.18,5.18,5.18h52.04c16.93,0,31.28-4.16,41.5-12.02,10.8-8.3,16.5-20.25,16.5-34.56v-.43c0-17-8.43-29.84-24.53-37.61Zm-33.06,58.86h-31.05v-43.16h28.14c11.37,0,20.36,2.05,26,5.92,5.04,3.46,7.5,8.34,7.5,14.91v.43c0,19.77-21.39,21.91-30.59,21.91Zm-5.84-68.7h-25.21v-41.86h26.47c17.19,0,27.05,7.12,27.05,19.52v.43c0,19.06-17.74,21.91-28.31,21.91Z"/><ellipse class="b" cx="447.21" cy="493.4" rx="19.07" ry="19.49"/></svg>